#!OML:ASF \\sashay\E\basketball\basketball\Project 1\Capture day 1\Session 1\Subject.ASF
:FULLY-SPECIFIED
:DEGREES
1
root 29.3112 15.2324 12.1353 173.661 -32.7169 -179.463
lowerback 4.93835 1.86622 -0.547928
upperback 7.41229 1.9666 0.933757
thorax 4.85332 0.718547 1.24282
lowerneck -5.53603 2.15016 -11.4952
upperneck -3.41339 3.45525 14.4115
head -0.525309 1.77485 6.30763
rclavicle -1.74931e-014 5.96354e-015
rhumerus -25.2813 -15.7738 -85.9745
rradius 24.0622
rwrist 17.4298
rhand -18.9839 31.5821
rfingers 7.12502
rthumb 7.32073 1.72876
lclavicle -1.74931e-014 5.96354e-015
lhumerus -23.7586 15.1769 88.7627
lradius 21.407
lwrist 3.08018
lhand -21.5731 21.5853
lfingers 7.12502
lthumb 4.82099 51.5104
rfemur -3.04427 -7.44779 18.4082
rtibia 38.5302
rfoot -23.4829 -22.1324
rtoes -19.405
lfemur -9.19384 17.2977 -8.60308
ltibia 43.2055
lfoot -20.2923 8.86864
ltoes -19.8947
2
root 29.2815 15.2272 12.1207 173.68 -32.4647 -179.346
lowerback 5.02885 1.86497 -0.494098
upperback 7.39263 1.96327 0.950865
thorax 4.78293 0.719003 1.22759
lowerneck -5.69904 2.23461 -11.3963
upperneck -3.3345 3.56996 14.2634
head -0.487523 1.83816 6.24646
rclavicle 4.24405e-014 -9.74045e-015
rhumerus -25.3204 -15.8452 -85.931
rradius 24.0265
rwrist 17.7059
rhand -19.0543 31.5618
rfingers 7.12502
rthumb 7.25271 1.70605
lclavicle 4.24405e-014 -9.74045e-015
lhumerus -24.0043 13.9543 89.0288
lradius 22.3574
lwrist 4.40476
lhand -21.6192 22.342
lfingers 7.12502
lthumb 4.77643 52.2681
rfemur -3.12549 -7.38276 18.4387
rtibia 38.6654
rfoot -23.6873 -22.022
rtoes -19.631
lfemur -9.18715 17.4177 -8.51795
ltibia 43.3966
lfoot -20.5731 8.93397
ltoes -19.7192
3
root 29.2492 15.2221 12.1061 173.72 -32.2309 -179.391
lowerback 5.21463 1.85132 -0.618007
upperback 7.36448 1.93862 0.97678
thorax 4.64407 0.699605 1.31812
lowerneck -5.93964 2.38599 -11.3597
upperneck -3.0685 3.77536 14.1138
head -0.395752 1.95465 6.19784
rclavicle 7.39479e-014 -1.47101e-014
rhumerus -25.4238 -15.6941 -85.8277
rradius 24.0549
rwrist 17.8897
rhand -18.8311 31.5794
rfingers 7.12502
rthumb 7.46818 1.73118
lclavicle 7.39479e-014 -1.47101e-014
lhumerus -24.3348 12.6285 89.4524
lradius 23.1947
lwrist 4.97396
lhand -21.9069 23.4576
lfingers 7.12502
lthumb 4.49867 53.3898
rfemur -3.13688 -7.40515 18.2441
rtibia 38.8371
rfoot -24.4062 -21.3224
rtoes -18.2685
lfemur -9.13315 17.5479 -8.57809
ltibia 43.6443
lfoot -20.867 9.02935
ltoes -19.6782
4
root 29.2158 15.211 12.0913 173.813 -32.0385 -179.504
lowerback 5.38847 1.83067 -0.757059
upperback 7.31715 1.90843 0.956784
thorax 4.49309 0.679697 1.36998
lowerneck -6.08501 2.51534 -11.1775
upperneck -2.7521 3.93466 13.7709
head -0.292912 2.04578 6.06246
rclavicle 6.48535e-015 -6.16232e-015
rhumerus -25.5549 -15.2918 -85.8041
rradius 24.1437
rwrist 17.6285
rhand -18.7319 31.5619
rfingers 7.12502
rthumb 7.56397 1.71715
lclavicle 6.48535e-015 -6.16232e-015
lhumerus -24.7812 11.9785 89.4698
lradius 24.2362
lwrist 6.24055
lhand -21.398 23.2801
lfingers 7.12502
lthumb 4.99007 53.2013
rfemur -3.13712 -7.4917 17.9789
rtibia 38.9596
rfoot -24.6063 -20.9584
rtoes -17.9623
lfemur -9.1496 17.5689 -8.74573
ltibia 43.9593
lfoot -21.1762 9.27285
ltoes -19.9189
5
root 29.1795 15.1845 12.0788 173.809 -31.7485 -179.308
lowerback 5.47657 1.82535 -0.656823
upperback 7.29272 1.89916 1.024
thorax 4.4193 0.677982 1.38087
lowerneck -6.0233 2.56568 -11.1443
upperneck -2.76613 4.00035 13.5635
head -0.311978 2.07789 5.98994
rclavicle 1.4238e-014 -6.36111e-015
rhumerus -25.5844 -14.7306 -85.8352
rradius 24.2436
rwrist 16.9531
rhand -18.8733 31.4954
rfingers 7.12502
rthumb 7.42745 1.64579
lclavicle 1.4238e-014 -6.36111e-015
lhumerus -25.1984 11.0773 89.5437
lradius 25.5031
lwrist 7.58109
lhand -21.1935 23.3874
lfingers 7.12502
lthumb 5.18753 53.3039
rfemur -3.30189 -8.07407 17.9766
rtibia 39.0355
rfoot -22.2901 -22.8056
rtoes -26.1434
lfemur -9.2984 17.6444 -8.61934
ltibia 44.3999
lfoot -21.5275 9.36417
ltoes -19.5766
6
root 29.1411 15.1742 12.0658 173.69 -31.4454 -178.88
lowerback 5.56639 1.81015 -0.305589
upperback 7.28644 1.87834 1.12264
thorax 4.37168 0.680011 1.28445
lowerneck -6.06771 2.63169 -11.2343
upperneck -2.84724 4.1016 13.6282
head -0.344073 2.12828 6.02595
rclavicle 4.30369e-014 -9.74045e-015
rhumerus -25.5721 -14.3188 -85.8772
rradius 24.358
rwrist 16.279
rhand -18.9854 31.3806
rfingers 7.12502
rthumb 7.31922 1.52718
lclavicle 4.30369e-014 -9.74045e-015
lhumerus -25.5854 10.3774 89.5039
lradius 26.7188
lwrist 7.99612
lhand -20.3856 23.8828
lfingers 7.12502
lthumb 5.96752 53.7787
rfemur -3.36111 -8.16744 18.2098
rtibia 39.0899
rfoot -22.6089 -22.3187
rtoes -25.5771
lfemur -9.40666 17.8259 -8.2541
ltibia 44.8365
lfoot -21.8852 9.28773
ltoes -19.0712
7
root 29.1046 15.1562 12.0516 173.688 -31.1792 -178.654
lowerback 5.66895 1.84027 -0.0622573
upperback 7.26986 1.92322 1.09365
thorax 4.30523 0.714493 1.11466
lowerneck -6.30535 2.71628 -11.2281
upperneck -2.72985 4.22041 13.8058
head -0.288977 2.19421 6.08652
rclavicle 2.15433e-014 5.36719e-015
rhumerus -25.6533 -14.239 -85.9373
rradius 24.5613
rwrist 15.9015
rhand -19.0985 31.2091
rfingers 7.12502
rthumb 7.21008 1.35191
lclavicle 2.15433e-014 5.36719e-015
lhumerus -26.0916 8.6779 89.7428
lradius 28.2652
lwrist 10.5091
lhand -20.1487 24.3055
lfingers 7.12502
lthumb 6.19631 54.1949
rfemur -3.41787 -7.98651 18.3639
rtibia 39.1136
rfoot -22.2174 -22.7376
rtoes -27.0811
lfemur -9.53911 18.0204 -8.07554
ltibia 45.3172
lfoot -22.2366 9.27725
ltoes -18.6986
8
root 29.067 15.1478 12.0346 173.818 -30.8793 -178.637
lowerback 5.76945 1.85361 -0.0918795
upperback 7.23735 1.94138 1.07174
thorax 4.21394 0.723285 1.10488
lowerneck -6.55724 2.80457 -11.0875
upperneck -2.48176 4.33526 13.5934
head -0.184146 2.26295 6.00262
rclavicle 3.32964e-015 7.7526e-015
rhumerus -25.7789 -13.9547 -85.9571
rradius 24.8183
rwrist 15.6338
rhand -19.239 31.1942
rfingers 7.12502
rthumb 7.07444 1.33244
lclavicle 3.32964e-015 7.7526e-015
lhumerus -26.6646 7.41634 89.7816
lradius 29.7727
lwrist 12.4219
lhand -20.0287 24.2751
lfingers 7.12502
lthumb 6.31208 54.161
rfemur -3.50836 -7.79673 18.3022
rtibia 39.1934
rfoot -22.4121 -22.6271
rtoes -26.7678
lfemur -9.63318 18.1164 -8.1408
ltibia 45.723
lfoot -22.5767 9.48507
ltoes -18.3564
9
root 29.0263 15.1414 12.0191 173.858 -30.5747 -178.556
lowerback 5.99624 1.8067 -0.145933
upperback 7.17388 1.87492 1.14611
thorax 4.01721 0.686083 1.20626
lowerneck -6.81248 2.8546 -10.762
upperneck -2.07833 4.3871 12.8985
head -0.0130486 2.30304 5.73796
rclavicle 3.98066e-014 -7.15625e-015
rhumerus -25.9559 -13.3009 -85.917
rradius 25.1177
rwrist 15.1899
rhand -19.3041 31.3345
rfingers 7.12502
rthumb 7.01158 1.47068
lclavicle 3.98066e-014 -7.15625e-015
lhumerus -27.3832 6.67176 89.7648
lradius 31.2053
lwrist 13.5617
lhand -19.7229 24.2735
lfingers 7.12502
lthumb 6.60728 54.1504
rfemur -3.53363 -7.83711 18.2071
rtibia 39.2829
rfoot -22.8097 -22.1609
rtoes -26.0021
lfemur -9.69695 18.2749 -8.11719
ltibia 46.1439
lfoot -22.8835 9.72638
ltoes -18.6326
10
root 28.9811 15.1317 12.0042 173.832 -30.2514 -178.41
lowerback 6.26039 1.83651 -0.00417863
upperback 7.11523 1.91788 1.16144
thorax 3.81167 0.713907 1.13373
lowerneck -7.06804 2.96352 -10.6218
upperneck -1.81324 4.52179 12.9449
head 0.0916765 2.37944 5.73753
rclavicle 6.4605e-015 -1.07344e-014
rhumerus -26.2367 -12.8267 -85.885
rradius 25.5741
rwrist 14.6016
rhand -19.2008 31.3313
rfingers 7.12502
rthumb 7.11134 1.47073
lclavicle 6.4605e-015 -1.07344e-014
lhumerus -28.1908 5.70265 89.7992
lradius 32.742
lwrist 14.5447
lhand -20.1763 24.2389
lfingers 7.12502
lthumb 6.16964 54.129
rfemur -3.5198 -7.92455 18.1197
rtibia 39.3997
rfoot -23.3996 -21.4247
rtoes -24.8314
lfemur -9.724 18.4846 -8.01048
ltibia 46.5741
lfoot -23.2587 9.8025
ltoes -18.3179
11
root 28.9328 15.1211 11.9889 173.869 -29.8783 -178.254
lowerback 6.41148 1.91194 0.224541
upperback 7.10058 2.02329 1.14569
thorax 3.71935 0.775981 0.982081
lowerneck -7.19962 2.9547 -10.3892
upperneck -1.78082 4.49668 12.8117
head 0.133374 2.36745 5.66008
rclavicle -8.05078e-015 -3.27995e-015
rhumerus -26.4775 -12.4011 -85.8736
rradius 26.1408
rwrist 13.9538
rhand -18.9561 31.2408
rfingers 7.12502
rthumb 7.34752 1.38842
lclavicle -8.05078e-015 -3.27995e-015
lhumerus -28.9863 4.70942 89.8547
lradius 34.4628
lwrist 15.7166
lhand -20.2352 24.6337
lfingers 7.12502
lthumb 6.11279 54.5255
rfemur -3.6147 -7.92076 18.0681
rtibia 39.5229
rfoot -23.5881 -21.0902
rtoes -24.8853
lfemur -9.79529 18.5938 -7.96963
ltibia 47.015
lfoot -23.6704 9.92677
ltoes -17.4516
